<svg viewBox="58 150 260 265" xmlns="http://www.w3.org/2000/svg">
  <rect x="196.052" y="270.089" transform="matrix(-0.7071 -0.7071 0.7071 -0.7071 156.0495 629.5154)" fill="#455A65" width="24.7" height="24.7"/>
  <rect x="295.125" y="188.342" fill="#26A9E0" width="13.867" height="13.867"/>
  <rect x="178.587" y="252.624" transform="matrix(-0.7071 -0.7071 0.7071 -0.7071 138.5842 587.3504)" fill="#00ADEE" width="24.7" height="24.7"/>
  <rect x="213.517" y="252.624" transform="matrix(-0.7071 -0.7071 0.7071 -0.7071 198.2144 612.05)" fill="#00ADEE" width="24.7" height="24.7"/>
  <rect x="196.052" y="235.158" transform="matrix(-0.7071 -0.7071 0.7071 -0.7071 180.7491 569.8851)" fill="#455A65" width="24.7" height="24.7"/>
  <path fill="#00ADEE" d="M271.412,267.889l-12.37-12.37c0.352,0.655,0.675,1.321,0.949,2.002c0.993,2.461,1.483,5.059,1.484,7.653c0,2.594-0.491,5.192-1.484,7.653c-0.991,2.459-2.495,4.779-4.47,6.753l-32.544,32.544c-1.974,1.976-4.295,3.479-6.753,4.47c-2.461,0.993-5.059,1.483-7.653,1.484c-2.594,0-5.192-0.491-7.653-1.484c-2.459-0.991-4.779-2.495-6.753-4.47l0,0l-17.952-17.951c-0.776-0.776-2.102-0.226-2.102,0.871v53.889c0,5.002-3.774,9.369-8.766,9.692c-5.469,0.354-10.015-3.977-10.015-9.37c0,0,0-83.753,0-84.417c0-2.594,0.491-5.192,1.484-7.653c0.991-2.459,2.495-4.779,4.47-6.753l32.544-32.544c1.974-1.976,4.295-3.48,6.753-4.47c2.461-0.993,5.059-1.483,7.653-1.484c2.594,0,5.192,0.491,7.653,1.484c0.681,0.274,1.347,0.597,2.002,0.949l-39.415-39.415c-7.888-7.888-20.797-7.888-28.685,0l-87.264,87.264c-7.888,7.888-7.888,20.797,0,28.685l87.103,92.939c7.888,7.888,20.797,7.888,28.685,0l93.1-87.264C279.3,288.685,279.3,275.777,271.412,267.889z"/>
</svg>
